<?xml version="1.0" standalone="no"?>
<!DOCTYPE svg PUBLIC "-//W3C//DTD SVG 20010904//EN"
 "http://www.w3.org/TR/2001/REC-SVG-20010904/DTD/svg10.dtd">
<svg version="1.0" xmlns="http://www.w3.org/2000/svg"
 width="1280.000000pt" height="1177.000000pt" viewBox="0 0 1280.000000 1177.000000"
 preserveAspectRatio="xMidYMid meet">

<g transform="translate(0.000000,1177.000000) scale(0.100000,-0.100000)"
fill="#000000" stroke="none">
<path d="M3393 11758 c-32 -16 -44 -58 -26 -95 l14 -31 -127 -173 c-70 -96
-128 -175 -129 -177 -1 -1 -56 13 -121 32 -400 115 -899 260 -955 277 -53 16
-66 24 -62 38 7 29 -34 71 -71 71 -59 0 -93 -74 -53 -117 14 -17 3 -47 -154
-413 -93 -217 -173 -405 -179 -417 -8 -19 -14 -21 -32 -14 -13 5 -33 5 -46 0
-21 -8 -63 31 -443 408 -231 230 -416 419 -411 421 15 5 -4 84 -24 99 -27 20
-62 16 -89 -12 -30 -29 -32 -54 -7 -86 18 -24 17 -27 -163 -509 -180 -482
-181 -485 -211 -488 -40 -5 -64 -29 -64 -67 0 -38 30 -69 68 -71 27 -1 28 -5
139 -385 62 -211 113 -390 113 -397 0 -22 -234 -312 -244 -302 -21 21 -74 11
-96 -17 -40 -51 3 -120 67 -110 31 5 37 1 97 -71 62 -74 64 -79 59 -122 -6
-52 12 -76 61 -82 28 -3 33 -12 102 -178 40 -96 73 -180 74 -186 0 -7 -59 -89
-131 -184 -72 -94 -129 -174 -126 -176 2 -2 62 72 132 166 71 93 131 170 134
170 3 0 14 -19 23 -41 l18 -42 -80 -235 c-45 -130 -83 -238 -85 -240 -3 -3
-33 20 -69 51 -62 56 -64 57 -59 99 4 35 1 47 -16 62 -61 55 -149 -13 -110
-85 14 -27 53 -41 82 -30 20 8 33 0 93 -51 38 -34 70 -64 72 -67 1 -4 -26 -88
-60 -186 -62 -177 -63 -180 -90 -177 -32 4 -78 -36 -78 -66 0 -30 37 -70 68
-74 34 -4 72 27 72 61 0 13 8 34 17 45 17 20 17 20 0 6 -16 -12 -20 -12 -28 1
-5 8 -9 16 -9 19 0 10 108 328 117 344 7 12 54 -24 243 -188 214 -185 235
-207 236 -237 2 -36 44 -82 68 -73 10 4 48 -97 145 -383 73 -213 134 -399 137
-413 3 -17 -4 -34 -23 -56 l-28 -32 -290 -31 c-159 -17 -296 -31 -302 -31 -7
0 -13 11 -13 24 0 14 -7 32 -16 40 -8 9 -13 20 -10 24 5 9 -18 7 -71 -4 -12
-2 -28 -15 -36 -29 l-13 -25 -129 96 c-72 52 -138 100 -147 105 -45 25 -6 -8
132 -110 83 -61 150 -117 150 -124 0 -45 84 -64 125 -28 16 14 77 24 323 50
219 24 307 30 315 22 8 -8 -128 -79 -484 -254 l-494 -244 -24 23 c-67 67 -169
-26 -106 -96 36 -40 125 -13 125 38 0 14 115 75 497 265 462 229 498 245 515
230 27 -24 69 -19 95 11 13 15 23 35 23 45 0 29 -38 69 -67 73 -26 3 -31 17
-164 408 -85 250 -134 409 -128 415 6 6 184 -168 476 -465 257 -261 534 -543
617 -627 125 -128 147 -154 137 -167 -40 -48 34 -136 89 -106 17 9 41 -1 160
-65 115 -63 140 -81 140 -99 0 -20 -41 -36 -472 -186 -260 -91 -478 -165 -483
-164 -23 2 -416 267 -408 275 5 5 7 24 5 43 -9 73 -114 76 -141 3 -8 -20 -6
-31 10 -51 l19 -25 -99 -248 -99 -248 -176 -62 c-169 -60 -179 -62 -202 -47
-15 11 -33 14 -50 10 -23 -6 -35 0 -73 36 l-46 43 43 -46 c38 -40 42 -50 33
-67 -25 -47 4 -102 54 -102 14 0 25 -2 25 -5 0 -2 27 -102 60 -222 l59 -218
-173 -435 c-152 -384 -175 -435 -195 -436 -36 -2 -61 -33 -61 -76 0 -32 5 -42
29 -55 26 -16 29 -23 35 -91 11 -139 7 -392 -6 -392 -10 0 -10 -2 -1 -8 9 -5
14 -130 19 -468 7 -441 6 -461 -11 -468 -22 -8 -14 -16 -144 146 -56 71 -104
128 -108 128 -7 0 -12 7 115 -152 l101 -126 -5 -49 c-5 -39 -3 -51 13 -65 27
-24 77 -26 102 -4 22 20 28 70 11 96 -7 11 2 27 38 65 l47 50 -51 -48 c-45
-43 -54 -48 -73 -38 -20 11 -21 18 -21 214 0 111 -3 426 -7 700 -4 373 -3 497
5 497 24 0 52 40 52 74 0 33 3 35 225 170 124 75 229 136 233 136 4 0 67 -217
140 -483 117 -428 131 -486 122 -514 -8 -23 -8 -37 -1 -52 9 -17 -51 -145
-406 -855 -230 -460 -422 -835 -428 -834 -25 5 -63 -14 -73 -37 -18 -39 -15
-54 18 -85 l31 -29 -41 -393 c-22 -216 -42 -403 -44 -416 -2 -12 0 -22 3 -22
4 0 26 188 50 418 24 229 44 417 45 417 0 0 17 8 37 18 l36 18 214 -66 c370
-115 546 -170 807 -250 l252 -78 0 -33 c0 -30 28 -65 60 -76 5 -2 19 -106 30
-233 21 -236 29 -300 35 -293 2 2 -7 120 -19 262 l-23 260 34 33 35 33 617
-191 c812 -250 771 -237 771 -260 0 -53 80 -78 117 -36 29 31 32 48 16 80 -25
50 -74 56 -120 14 -21 -18 -27 -19 -65 -8 -24 7 -332 103 -686 212 -354 109
-645 199 -648 199 -2 0 -9 11 -14 25 -5 14 -23 34 -40 43 -23 13 -31 26 -35
57 -7 53 -65 714 -65 741 0 15 8 23 26 27 23 4 54 -27 308 -311 279 -310 283
-315 270 -341 -19 -37 -17 -54 8 -78 52 -48 128 -20 128 46 0 26 35 55 394
324 269 202 397 292 404 285 6 -6 25 -11 43 -13 l33 -2 183 -422 183 -422 -21
-29 c-37 -49 -6 -110 55 -110 66 0 92 74 42 117 -15 13 -35 23 -45 23 -13 0
-26 17 -41 53 -12 28 -94 218 -182 421 l-160 368 17 37 c37 83 -48 149 -111
86 -19 -19 -25 -34 -22 -58 3 -31 -4 -37 -352 -299 -470 -354 -426 -325 -450
-303 -19 17 -20 31 -20 307 0 244 2 288 14 288 21 0 46 39 46 72 0 18 -10 34
-32 52 l-33 25 -3 475 -3 475 23 12 c31 16 38 28 38 67 0 63 -71 95 -118 52
-26 -24 -29 -75 -7 -100 14 -16 -10 -58 -278 -486 -277 -444 -294 -469 -320
-466 -33 4 -77 -37 -77 -71 0 -30 73 0 -633 -256 -567 -205 -579 -209 -597
-191 -19 19 -11 36 391 847 226 455 412 829 414 832 3 2 10 0 17 -6 23 -17 56
-12 82 12 33 31 33 69 0 102 -21 21 -32 24 -60 20 -31 -5 -35 -3 -41 21 -3 15
-63 233 -133 486 l-127 458 31 19 c17 10 204 124 416 252 l385 234 24 -19 c33
-25 67 -23 96 7 39 38 28 93 -23 114 -25 11 -36 10 -65 -4 l-34 -16 -304 147
c-167 81 -359 173 -426 205 l-122 57 60 149 59 148 351 122 351 122 531 -347
c480 -314 530 -350 533 -376 4 -40 31 -66 69 -66 42 0 65 19 74 60 6 31 58 77
471 415 457 375 465 381 492 368 68 -34 137 41 94 103 -13 19 2 31 305 244
176 124 325 230 332 235 7 6 81 59 165 119 128 90 157 106 180 102 15 -4 39 0
55 9 l28 15 172 -148 c95 -81 177 -151 183 -157 6 -5 91 -77 188 -160 156
-133 176 -153 171 -174 -10 -38 13 -80 49 -90 56 -15 99 22 91 79 -4 35 0 40
479 519 481 481 484 484 507 467 31 -21 51 -20 83 5 52 41 19 129 -49 129 -31
0 -68 -44 -67 -78 0 -25 -63 -93 -485 -514 -477 -477 -486 -485 -514 -475 -20
8 -35 8 -53 -1 -25 -11 -38 -1 -303 226 -153 130 -317 270 -364 310 -77 65
-85 75 -81 102 5 36 -35 80 -73 80 -14 0 -37 -11 -52 -26 -25 -25 -27 -50 -10
-94 8 -19 -956 -702 -978 -693 -8 3 -15 11 -15 18 0 8 27 114 61 237 71 260
73 277 40 294 -28 14 -54 3 -69 -31 -9 -20 -21 -21 -243 -32 -129 -7 -469 -24
-757 -39 l-523 -27 -27 33 -28 33 108 355 c74 244 114 361 128 374 11 10 20
27 20 37 0 22 1320 775 1334 760 14 -13 60 -11 74 3 15 15 15 61 0 76 -28 28
-81 3 -89 -42 -3 -13 -200 -130 -654 -388 -357 -204 -657 -372 -666 -375 -9
-3 -20 0 -24 7 -4 6 73 200 171 430 139 327 183 420 196 420 22 0 58 34 58 55
0 23 -37 55 -56 48 -12 -4 -103 82 -340 318 -308 308 -324 326 -324 361 0 33
-3 37 -31 43 -24 5 -36 2 -55 -16 -21 -19 -55 -26 -274 -56 -246 -33 -250 -33
-270 -15 -23 21 -23 36 -46 993 l-7 296 299 225 c164 123 441 331 614 462
l314 238 27 -16 c37 -22 75 -20 100 5 17 17 20 29 16 63 -6 40 -3 46 109 199
64 86 121 157 127 157 7 0 310 -86 674 -191 658 -191 661 -192 667 -220 6 -32
38 -52 81 -51 28 0 37 -10 145 -180 63 -99 151 -236 195 -304 44 -68 101 -156
126 -196 26 -40 115 -179 199 -308 83 -129 152 -238 153 -242 3 -12 -246 -366
-262 -373 -8 -3 -17 -2 -20 3 -73 113 -846 1250 -848 1248 -2 -2 188 -286 421
-632 234 -346 421 -630 415 -632 -18 -7 -10 -67 11 -80 47 -29 107 43 66 78
-9 7 -16 16 -16 21 0 9 212 313 234 337 10 11 66 -69 285 -409 206 -320 269
-424 259 -432 -10 -7 -9 -8 3 -4 11 4 78 -92 255 -366 297 -460 287 -443 267
-473 -32 -50 11 -114 76 -114 53 0 85 38 77 90 -7 48 -39 72 -89 68 l-40 -2
-249 384 c-137 212 -253 393 -259 402 -8 15 -4 20 23 33 32 15 26 15 -18 1
-19 -6 -50 37 -290 410 -148 229 -272 422 -276 428 -3 6 97 158 223 336 126
179 352 498 501 710 l272 386 45 -2 44 -2 249 -443 c137 -243 254 -453 261
-465 47 -88 200 -354 203 -354 7 0 12 -9 -451 814 -219 390 -256 462 -246 477
25 41 -2 109 -44 109 -13 0 -15 39 -18 268 l-2 267 -3 -266 -2 -266 -25 -11
c-13 -6 -27 -23 -31 -37 -3 -14 -14 -25 -23 -26 -13 0 -14 -2 -1 -6 20 -8 40
-35 36 -49 -4 -10 -746 -1066 -810 -1151 -17 -23 -62 -87 -101 -143 -38 -56
-75 -106 -81 -111 -8 -7 -52 53 -155 213 -79 122 -148 230 -154 240 -5 9 -120
186 -254 394 -177 274 -240 379 -232 387 6 6 11 23 11 38 0 22 12 35 73 75 39
27 74 52 77 55 3 3 211 149 462 324 252 175 456 320 454 323 -4 3 -781 -533
-999 -690 l-67 -48 -28 20 c-33 25 -74 19 -96 -12 -14 -20 -15 -19 -118 10
-109 32 -557 162 -975 283 -139 40 -253 76 -253 79 0 3 56 82 125 175 110 149
129 170 155 172 17 2 38 4 48 5 9 1 236 -159 510 -361 272 -199 495 -361 498
-359 4 5 10 1 -543 407 -405 297 -452 334 -443 352 16 28 1 68 -31 84 -32 17
-36 17 -66 3z m-983 -284 c217 -63 460 -133 540 -156 80 -23 148 -44 153 -48
4 -3 -43 -75 -105 -160 l-113 -153 -58 -2 -59 -1 -386 314 c-415 337 -418 339
-387 328 11 -4 197 -59 415 -122z m-35 -215 c353 -287 393 -323 386 -342 -8
-22 -12 -22 -351 -29 l-342 -7 -23 27 c-44 51 -124 26 -125 -39 0 -23 -14 -31
-177 -100 -97 -40 -180 -75 -184 -77 -4 -2 -12 5 -18 15 -9 17 35 131 133 348
7 17 58 135 112 264 54 128 103 234 109 236 5 1 24 7 40 13 17 5 33 10 38 11
4 1 185 -143 402 -320z m-1375 -119 l418 -411 -5 -40 c-4 -29 -1 -44 11 -58
16 -18 14 -21 -36 -63 -44 -37 -664 -539 -705 -571 -9 -6 -18 -5 -29 4 -9 7
-29 12 -44 11 -24 -2 -53 25 -231 219 -199 215 -204 221 -201 259 2 28 -2 44
-16 58 -18 18 -15 28 162 505 180 484 181 486 211 490 17 2 34 5 39 5 4 1 196
-183 426 -408z m1760 -265 c0 -3 -17 -12 -37 -20 -21 -9 -291 -127 -601 -262
-309 -135 -565 -243 -569 -240 -3 4 0 15 8 24 13 16 12 17 -2 5 -12 -9 -24
-10 -43 -2 -46 17 -96 -15 -96 -61 0 -23 -7 -32 -37 -47 -92 -46 -694 -304
-699 -299 -8 8 775 639 785 633 5 -3 22 -1 39 5 21 7 33 19 37 38 5 26 23 35
190 105 171 72 214 83 202 52 -3 -8 10 -11 41 -10 47 2 82 28 82 60 0 11 33
14 158 17 326 6 542 7 542 2z m-65 -54 c-6 -4 -176 -134 -380 -286 -203 -153
-461 -348 -573 -433 -112 -85 -206 -151 -210 -147 -4 3 -8 69 -10 146 -4 133
-3 141 17 160 11 11 21 32 21 47 0 25 8 31 103 71 56 25 133 58 171 75 259
116 853 374 861 375 5 1 5 -2 0 -8z m-2330 -592 c136 -148 199 -224 196 -236
-2 -10 -4 -37 -5 -61 -2 -38 -12 -57 -91 -159 l-90 -115 -18 58 c-48 156 -207
711 -207 722 0 7 3 12 8 11 4 0 97 -99 207 -220z m1068 34 c4 -4 -5 -20 -20
-37 l-28 -31 30 26 c23 21 37 26 62 22 l32 -5 3 -153 3 -153 -499 -376 c-275
-207 -501 -375 -503 -373 -12 12 -133 460 -127 470 5 6 48 63 97 125 64 81 93
110 100 103 14 -14 64 -14 72 -1 4 6 11 8 16 4 5 -3 9 -2 8 3 -1 4 2 22 6 38
6 30 22 38 363 187 197 86 362 157 368 157 6 1 14 -2 17 -6z m96 -915 c6 -310
14 -593 17 -629 5 -58 4 -67 -13 -72 -10 -4 -25 -12 -34 -18 -12 -9 -101 3
-400 55 -211 36 -387 66 -391 66 -5 0 -8 8 -8 17 0 24 -40 63 -65 63 -19 0
-26 19 -69 166 -26 91 -44 170 -39 174 42 41 411 309 420 306 7 -3 10 0 8 7
-4 10 538 426 556 427 3 0 11 -253 18 -562z m-1089 39 c35 -119 61 -219 59
-220 -2 -2 -25 -19 -51 -40 -48 -38 -65 -46 -52 -24 5 8 3 8 -9 -2 -9 -7 -14
-17 -11 -22 7 -12 -6 -11 -44 2 -21 7 -37 7 -49 0 -16 -8 -29 2 -86 73 -64 79
-66 85 -56 114 7 20 7 37 1 48 -7 13 14 47 107 165 67 85 119 143 122 136 4
-7 35 -110 69 -230z m88 -304 c11 -38 32 -109 47 -159 l27 -92 -21 -21 c-22
-22 -27 -61 -12 -90 7 -13 0 -29 -31 -70 -22 -29 -44 -49 -48 -44 -4 4 -39 84
-78 177 -69 167 -69 169 -50 188 13 13 18 30 16 53 -3 31 2 38 57 79 33 25 63
46 67 46 3 0 15 -30 26 -67z m587 -413 c400 -68 414 -73 372 -119 -17 -20 -18
-22 -2 -9 12 10 30 14 46 11 33 -6 69 12 69 35 0 16 25 22 198 45 322 44 308
43 322 17 10 -19 18 -22 49 -17 l38 5 318 -325 c184 -188 314 -328 309 -333
-5 -5 -369 -90 -809 -190 -440 -100 -855 -194 -922 -209 -101 -23 -123 -26
-127 -14 -3 8 -20 20 -38 28 -32 13 -41 32 -215 447 l-182 435 37 106 c32 92
40 107 59 107 12 0 30 11 40 25 13 19 25 24 43 21 14 -2 192 -32 395 -66z
m-546 -77 l-32 -97 -20 41 -20 41 48 62 c26 33 49 59 52 56 3 -2 -10 -49 -28
-103z m76 -392 c86 -207 96 -237 85 -255 -12 -19 -12 -20 3 -7 15 11 18 10 26
-10 7 -21 78 -190 124 -299 15 -34 15 -36 -9 -47 -22 -10 -33 -3 -156 104 -73
64 -135 117 -137 119 -2 2 2 12 10 21 13 16 12 17 -3 4 -20 -15 -36 -4 -157
106 l-54 49 78 233 c42 128 81 229 85 224 4 -4 51 -114 105 -242z m2185 -266
c0 -7 4 -15 9 -17 5 -1 -72 -195 -172 -429 -163 -383 -185 -427 -209 -437 -16
-6 -28 -17 -28 -26 0 -9 -6 -16 -13 -16 -7 0 -96 29 -198 64 -101 36 -407 141
-679 235 -272 94 -510 178 -528 186 -76 35 -66 38 895 256 499 114 911 205
916 202 4 -2 7 -10 7 -18z m-1409 -596 c238 -83 562 -195 719 -250 157 -54
290 -106 296 -114 6 -8 16 -15 23 -15 6 0 11 -8 11 -17 0 -10 -47 -171 -104
-358 -101 -331 -104 -339 -132 -347 -28 -8 -48 10 -627 594 -573 579 -649 658
-630 658 5 0 205 -68 444 -151z m2374 -1104 c-11 -5 -295 -77 -764 -195 -295
-74 -325 -80 -340 -66 -20 18 -82 21 -98 5 -8 -8 -45 6 -140 56 -162 86 -156
81 -136 111 14 22 22 24 97 25 44 0 349 15 676 33 575 32 726 39 705 31z m108
-25 c13 0 17 -5 13 -15 -3 -8 -29 -106 -58 -217 -48 -184 -55 -204 -86 -236
l-35 -34 -451 76 c-248 43 -479 82 -513 88 -62 11 -63 12 -63 43 l0 32 548
138 c301 76 556 141 567 145 12 5 28 2 40 -6 11 -8 28 -14 38 -14z m-1323
-330 c6 -11 22 -23 35 -26 27 -7 31 -17 39 -109 3 -33 21 -228 41 -433 20
-205 35 -378 32 -385 -2 -7 -16 -18 -29 -25 -23 -13 -52 4 -539 323 -283 185
-517 339 -521 343 -6 6 896 329 924 331 4 1 12 -8 18 -19z m575 -85 c204 -35
418 -72 478 -81 88 -15 107 -22 109 -36 0 -10 1 -22 2 -27 1 -5 -208 -180
-464 -390 -456 -372 -465 -380 -485 -362 -11 10 -27 20 -35 23 -12 5 -22 79
-53 394 -56 582 -53 525 -31 541 23 17 -1 20 479 -62z m-1757 -85 c105 -69
192 -128 192 -131 0 -6 -663 -239 -668 -234 -2 1 39 108 91 236 l93 234 37 6
c21 3 40 9 44 13 9 9 -5 17 211 -124z m-559 -534 c-30 -75 -57 -136 -60 -136
-3 0 -54 23 -113 51 -105 49 -107 51 -104 81 3 32 5 32 163 88 88 31 162 55
164 54 2 -2 -21 -64 -50 -138z m-170 -100 l108 -55 -66 -165 c-37 -91 -69
-168 -72 -170 -2 -3 -30 90 -62 206 -55 199 -57 211 -40 224 10 7 19 14 21 14
1 0 51 -24 111 -54z m927 -449 c46 -23 50 -29 47 -54 -4 -26 -45 -53 -411
-273 -223 -135 -410 -245 -415 -245 -6 0 -47 134 -92 298 l-82 299 58 146 c31
81 64 164 73 184 l16 37 377 -183 c208 -101 401 -195 429 -209z m-876 -301
c60 -214 76 -284 67 -292 -7 -6 -110 -70 -230 -143 -154 -93 -224 -130 -238
-126 -10 4 -19 12 -19 18 0 22 334 849 338 837 3 -7 40 -139 82 -294z m1508
-2103 l2 -480 -24 -12 c-52 -28 -53 -89 -2 -127 l26 -19 7 -281 6 -281 -27 -5
c-25 -5 -49 19 -311 310 -266 296 -282 317 -269 336 18 27 18 52 -2 85 -16 26
-14 28 277 494 160 257 297 466 303 464 8 -3 12 -144 14 -484z m-714 -575 c-1
-9 6 -15 14 -14 14 1 21 -57 52 -404 l37 -405 -21 -17 c-12 -10 -26 -18 -31
-18 -6 0 -112 32 -235 71 -124 39 -238 74 -255 79 -23 6 -584 179 -753 232
-27 8 -33 14 -30 35 3 23 39 37 553 224 303 110 573 208 600 219 55 21 71 20
69 -2z"/>
<path d="M521 11424 c0 -11 3 -14 6 -6 3 7 2 16 -1 19 -3 4 -6 -2 -5 -13z"/>
<path d="M551 10984 c0 -11 3 -14 6 -6 3 7 2 16 -1 19 -3 4 -6 -2 -5 -13z"/>
<path d="M571 10714 c0 -11 3 -14 6 -6 3 7 2 16 -1 19 -3 4 -6 -2 -5 -13z"/>
<path d="M601 10274 c0 -11 3 -14 6 -6 3 7 2 16 -1 19 -3 4 -6 -2 -5 -13z"/>
<path d="M1855 10708 l-40 -43 43 40 c23 21 42 40 42 42 0 8 -9 0 -45 -39z"/>
<path d="M1749 10593 l-34 -38 38 34 c20 19 37 36 37 38 0 8 -8 0 -41 -34z"/>
<path d="M1645 10478 l-40 -43 43 40 c23 21 42 40 42 42 0 8 -9 0 -45 -39z"/>
<path d="M1319 10123 l-34 -38 38 34 c20 19 37 36 37 38 0 8 -8 0 -41 -34z"/>
<path d="M1209 10003 l-34 -38 38 34 c34 33 42 41 34 41 -2 0 -19 -17 -38 -37z"/>
<path d="M1105 9888 l-40 -43 43 40 c39 36 47 45 39 45 -2 0 -21 -19 -42 -42z"/>
<path d="M999 9773 l-34 -38 38 34 c20 19 37 36 37 38 0 8 -8 0 -41 -34z"/>
<path d="M894 9658 l-29 -33 33 29 c17 17 32 31 32 33 0 8 -8 1 -36 -29z"/>
<path d="M785 9538 l-40 -43 43 40 c39 36 47 45 39 45 -2 0 -21 -19 -42 -42z"/>
<path d="M675 9418 l-40 -43 43 40 c39 36 47 45 39 45 -2 0 -21 -19 -42 -42z"/>
<path d="M569 9303 l-34 -38 38 34 c20 19 37 36 37 38 0 8 -8 0 -41 -34z"/>
<path d="M449 9173 l-24 -28 28 24 c15 14 27 26 27 28 0 8 -8 1 -31 -24z"/>
<path d="M1434 8508 l-19 -23 23 19 c21 18 27 26 19 26 -2 0 -12 -10 -23 -22z"/>
<path d="M1384 8468 l-19 -23 23 19 c21 18 27 26 19 26 -2 0 -12 -10 -23 -22z"/>
<path d="M1329 8423 c-13 -16 -12 -17 4 -4 16 13 21 21 13 21 -2 0 -10 -8 -17
-17z"/>
<path d="M1279 8383 c-13 -16 -12 -17 4 -4 9 7 17 15 17 17 0 8 -8 3 -21 -13z"/>
<path d="M1229 8343 c-13 -16 -12 -17 4 -4 16 13 21 21 13 21 -2 0 -10 -8 -17
-17z"/>
<path d="M1179 8303 c-13 -16 -12 -17 4 -4 16 13 21 21 13 21 -2 0 -10 -8 -17
-17z"/>
<path d="M1129 8263 c-13 -16 -12 -17 4 -4 16 13 21 21 13 21 -2 0 -10 -8 -17
-17z"/>
<path d="M1079 8223 c-13 -16 -12 -17 4 -4 16 13 21 21 13 21 -2 0 -10 -8 -17
-17z"/>
<path d="M1029 8183 c-13 -16 -12 -17 4 -4 16 13 21 21 13 21 -2 0 -10 -8 -17
-17z"/>
<path d="M979 8143 c-13 -16 -12 -17 4 -4 16 13 21 21 13 21 -2 0 -10 -8 -17
-17z"/>
<path d="M929 8103 c-13 -16 -12 -17 4 -4 16 13 21 21 13 21 -2 0 -10 -8 -17
-17z"/>
<path d="M879 8063 c-13 -16 -12 -17 4 -4 16 13 21 21 13 21 -2 0 -10 -8 -17
-17z"/>
<path d="M829 8023 c-13 -16 -12 -17 4 -4 16 13 21 21 13 21 -2 0 -10 -8 -17
-17z"/>
<path d="M779 7983 c-13 -16 -12 -17 4 -4 16 13 21 21 13 21 -2 0 -10 -8 -17
-17z"/>
<path d="M679 7903 c-13 -16 -12 -17 4 -4 16 13 21 21 13 21 -2 0 -10 -8 -17
-17z"/>
<path d="M629 7863 c-13 -16 -12 -17 4 -4 16 13 21 21 13 21 -2 0 -10 -8 -17
-17z"/>
<path d="M11115 11579 c3 -29 14 -148 24 -263 l19 -210 -35 -33 -35 -33 -207
64 c-113 36 -332 103 -486 151 -154 47 -314 97 -355 110 -41 13 -135 42 -207
65 -111 34 -133 44 -133 60 0 54 -79 79 -117 38 -29 -32 -32 -49 -16 -81 26
-51 95 -56 124 -9 11 18 16 19 53 6 23 -7 291 -90 596 -184 305 -95 599 -185
653 -202 80 -25 100 -36 108 -55 5 -13 22 -32 39 -41 23 -13 31 -26 35 -57 7
-53 65 -714 65 -741 0 -15 -8 -23 -26 -27 -23 -4 -54 28 -308 311 -279 310
-283 315 -270 341 19 37 17 54 -8 78 -52 48 -128 20 -128 -46 0 -26 -35 -55
-394 -324 -269 -202 -397 -292 -404 -285 -6 6 -25 11 -43 13 l-33 2 -183 422
-183 422 21 29 c37 49 6 110 -55 110 -66 0 -92 -74 -42 -117 15 -13 35 -23 45
-23 13 0 26 -17 41 -52 12 -29 94 -219 182 -422 l160 -368 -17 -37 c-37 -83
48 -149 111 -86 19 19 25 34 22 57 -3 32 5 39 352 300 467 353 426 325 450
303 19 -17 20 -31 20 -307 0 -244 -2 -288 -14 -288 -21 0 -46 -39 -46 -72 0
-18 10 -34 33 -52 l32 -25 3 -475 3 -475 -23 -12 c-31 -16 -38 -28 -38 -66 0
-64 71 -96 118 -53 26 24 29 75 7 100 -14 16 10 58 278 486 277 444 294 469
320 466 33 -4 77 37 77 71 0 29 -54 7 500 207 245 89 506 183 580 210 220 81
243 160 -241 -816 -226 -456 -412 -830 -414 -833 -3 -2 -10 0 -17 6 -23 17
-56 12 -82 -12 -33 -31 -33 -69 0 -102 21 -21 32 -24 60 -20 31 5 35 3 41 -21
3 -15 63 -233 133 -485 l127 -459 -38 -23 c-21 -14 -208 -127 -416 -253 l-379
-229 -23 18 c-32 26 -67 24 -96 -6 -39 -38 -28 -93 23 -114 25 -11 36 -10 65
4 l34 16 294 -142 c162 -78 353 -170 426 -204 l132 -63 -60 -149 -59 -148
-351 -122 -351 -122 -530 347 c-481 314 -531 350 -534 376 -9 89 -143 88 -145
-1 0 -24 -61 -77 -467 -408 -450 -366 -468 -380 -492 -368 -31 16 -70 9 -92
-19 -25 -29 -22 -65 8 -95 l26 -26 -33 -219 c-30 -198 -35 -220 -56 -233 -21
-14 -46 -9 -345 69 -178 47 -539 142 -803 211 -449 118 -520 137 -569 155 -20
7 -5 17 1057 732 255 171 281 186 305 177 57 -22 110 22 97 81 -13 60 -78 78
-121 35 -20 -20 -25 -34 -22 -64 l3 -39 -662 -446 c-364 -245 -667 -446 -673
-446 -5 0 -10 4 -10 10 0 16 -63 28 -85 17 -50 -25 -58 -74 -20 -112 33 -34
70 -32 106 6 l28 30 808 -211 c444 -116 824 -217 843 -223 23 -9 36 -21 40
-37 12 -53 75 -56 98 -5 9 20 21 22 248 33 132 6 472 23 756 38 l517 27 29
-31 29 -31 -108 -358 c-63 -207 -115 -363 -125 -370 -8 -6 -18 -23 -22 -37 -6
-21 -113 -86 -667 -400 -417 -237 -664 -371 -670 -365 -13 13 -59 11 -73 -3
-15 -15 -15 -61 0 -76 28 -28 81 -3 89 42 3 12 195 127 619 368 769 437 708
404 722 390 16 -16 -340 -852 -364 -852 -22 0 -58 -34 -58 -55 0 -23 39 -57
58 -50 12 4 103 -81 339 -317 307 -307 323 -325 323 -360 0 -33 3 -37 31 -43
24 -5 36 -2 55 16 21 19 55 26 274 56 246 33 250 33 270 15 23 -21 23 -36 46
-993 l7 -297 -259 -194 c-142 -107 -419 -315 -614 -462 l-354 -268 -27 16
c-37 22 -75 20 -100 -5 -17 -17 -20 -29 -16 -63 6 -40 3 -46 -109 -199 -64
-86 -121 -157 -127 -157 -7 0 -310 86 -674 192 -655 190 -661 192 -667 219 -6
32 -38 52 -81 51 -28 0 -37 10 -145 180 -63 99 -151 236 -195 304 -44 68 -101
156 -127 196 -25 40 -106 165 -178 278 -73 113 -143 221 -156 241 l-22 36 126
179 c116 165 138 194 152 194 3 0 196 -284 429 -630 234 -346 426 -628 428
-626 2 2 -188 286 -421 632 -234 346 -420 631 -415 632 18 7 10 67 -11 80 -47
29 -107 -43 -66 -78 9 -7 16 -16 16 -21 0 -9 -212 -313 -235 -337 -10 -11 -64
67 -281 404 -148 230 -270 420 -272 424 -1 3 27 17 63 29 36 13 64 25 62 28
-3 2 -33 -7 -69 -20 l-64 -25 -240 371 c-297 460 -287 443 -267 473 49 76 -68
154 -132 89 -55 -54 -13 -139 67 -134 l41 3 258 -399 c142 -220 255 -403 251
-406 -4 -4 -35 -17 -70 -29 -34 -13 -61 -25 -59 -27 3 -2 35 8 73 22 37 14 71
22 75 18 4 -5 123 -188 264 -408 142 -219 263 -408 271 -420 12 -18 -6 -47
-217 -345 -126 -179 -352 -498 -501 -710 l-272 -386 -45 2 -44 2 -249 443
c-137 243 -254 453 -261 465 -47 88 -200 354 -203 354 -7 0 -18 20 451 -814
253 -451 257 -459 242 -485 -13 -22 -13 -31 -2 -58 9 -20 23 -35 39 -39 l26
-6 3 -267 2 -266 3 266 2 266 25 11 c13 6 27 23 31 37 3 14 14 25 23 26 13 0
14 2 1 6 -20 8 -40 36 -36 49 2 6 185 267 406 580 222 313 417 589 435 614 17
25 57 82 89 127 32 46 61 85 66 88 6 4 249 -359 305 -457 6 -9 120 -186 254
-394 177 -274 240 -379 232 -387 -6 -6 -11 -23 -11 -38 0 -22 -12 -35 -72 -75
-40 -27 -75 -52 -78 -55 -3 -3 -211 -149 -462 -324 -252 -175 -456 -321 -454
-323 4 -4 1011 694 1048 725 15 14 20 13 44 -6 31 -25 40 -25 75 -7 24 12 30
11 75 -24 27 -21 253 -187 501 -369 405 -297 452 -334 443 -352 -17 -31 -1
-69 36 -87 32 -15 36 -15 61 4 36 27 44 55 26 91 l-14 31 127 173 c70 96 128
175 129 177 2 2 615 -174 1077 -309 54 -16 65 -23 61 -37 -7 -28 34 -72 67
-72 61 0 97 73 57 117 -14 17 -3 47 154 413 93 217 173 405 179 417 8 19 14
21 32 14 13 -5 33 -5 47 0 21 8 59 -27 443 -408 230 -230 415 -419 410 -421
-15 -5 4 -85 24 -99 27 -20 62 -16 89 12 30 29 32 54 7 86 -18 24 -17 27 163
509 180 482 181 485 211 488 40 5 64 29 64 67 0 38 -30 69 -68 71 -27 1 -28 5
-139 385 -62 211 -113 390 -113 397 0 22 234 312 244 302 21 -21 74 -11 96 17
40 51 -3 120 -67 110 -31 -5 -37 -1 -97 71 -62 74 -64 79 -59 122 6 52 -12 76
-61 82 -28 3 -33 12 -102 178 -40 96 -73 180 -74 186 0 7 59 89 131 184 72 94
129 174 126 176 -2 2 -62 -72 -132 -166 -71 -93 -131 -170 -134 -170 -3 0 -14
19 -23 41 l-18 42 80 235 c45 130 83 238 85 240 3 3 33 -20 69 -51 62 -56 64
-57 59 -99 -4 -35 -1 -47 16 -62 61 -55 149 13 110 85 -14 27 -53 41 -82 30
-20 -8 -33 0 -93 51 -38 34 -70 64 -72 67 -1 4 26 88 60 186 62 177 63 180 90
177 32 -4 78 36 78 66 0 30 -37 70 -68 74 -34 4 -72 -27 -72 -61 0 -13 -8 -34
-17 -45 -17 -20 -17 -20 0 -6 16 12 20 12 28 -1 5 -8 9 -16 9 -19 0 -10 -108
-328 -117 -344 -7 -12 -55 25 -243 189 -213 184 -235 206 -236 236 -2 36 -44
82 -68 73 -10 -4 -48 97 -145 383 -73 213 -134 399 -137 413 -3 17 4 34 23 56
l28 31 295 32 c162 17 298 31 303 31 4 0 7 -11 7 -24 0 -14 7 -32 16 -40 8 -9
13 -20 10 -24 -5 -9 18 -7 71 4 12 2 28 16 36 29 l13 25 121 -89 c137 -101
173 -126 173 -118 0 3 -67 55 -150 116 -82 61 -150 117 -150 124 0 46 -84 64
-125 28 -16 -15 -76 -24 -323 -51 -222 -24 -306 -30 -314 -22 -8 8 122 77 483
255 l494 244 24 -24 c67 -65 169 27 106 97 -36 40 -125 13 -125 -38 0 -13
-120 -77 -497 -265 -466 -233 -497 -246 -514 -231 -28 25 -69 21 -96 -10 -13
-15 -23 -35 -23 -45 0 -29 38 -69 67 -73 26 -3 31 -17 164 -408 83 -246 134
-409 128 -415 -6 -5 -188 173 -476 465 -257 261 -534 543 -617 627 -125 127
-147 154 -137 167 7 8 11 29 9 48 -3 24 -13 37 -37 52 -31 18 -35 18 -67 3
l-34 -17 -127 79 c-196 119 -226 94 338 290 260 90 477 164 483 164 6 0 102
-59 214 -132 129 -86 199 -137 195 -145 -23 -37 17 -96 66 -96 30 0 71 32 71
55 0 8 5 15 10 15 6 0 -1 12 -15 27 -13 15 -23 34 -20 43 3 8 47 121 99 250
l94 235 177 62 c168 59 178 61 201 47 15 -11 33 -14 51 -10 22 6 34 -1 82 -46
l56 -53 -53 56 c-47 49 -53 59 -43 77 25 47 -4 102 -54 102 -14 0 -25 2 -25 5
0 2 -27 102 -60 222 l-59 218 172 435 c153 385 176 435 195 436 37 2 62 33 62
76 0 32 -5 42 -29 55 -26 16 -29 23 -35 91 -11 139 -7 392 7 392 9 0 9 2 0 8
-9 6 -14 128 -19 468 -7 441 -6 461 11 468 22 8 14 16 144 -146 56 -71 104
-128 108 -128 7 0 12 -7 -115 152 l-101 126 5 49 c5 39 3 51 -13 65 -27 24
-77 26 -102 4 -22 -20 -28 -70 -11 -96 7 -11 0 -25 -28 -55 l-37 -40 41 38
c36 34 45 37 63 28 20 -11 21 -18 21 -214 0 -111 3 -426 7 -699 4 -374 3 -498
-5 -498 -24 0 -52 -40 -52 -74 0 -34 -2 -35 -225 -170 -124 -75 -229 -136
-233 -136 -4 0 -67 217 -140 483 -118 429 -131 485 -122 514 8 23 8 37 1 52
-9 17 51 145 406 855 230 460 422 835 428 834 25 -5 63 14 73 37 18 39 15 54
-18 85 l-31 29 41 393 c22 216 42 403 44 416 2 12 0 22 -3 22 -4 0 -26 -188
-50 -417 -24 -230 -44 -418 -45 -418 0 0 -17 -8 -36 -18 l-36 -18 -389 121
c-215 66 -501 155 -637 197 l-248 77 0 32 c0 30 -28 65 -60 76 -5 2 -20 119
-33 261 -13 141 -27 260 -31 264 -4 4 -4 -18 -1 -48z m246 -635 c63 -19 170
-53 239 -74 69 -22 287 -89 485 -150 198 -61 375 -116 393 -121 27 -9 33 -15
30 -36 -3 -23 -42 -38 -607 -244 -332 -120 -608 -216 -613 -213 -5 3 -7 12 -4
19 2 7 -2 12 -12 11 -14 -1 -21 50 -52 404 l-37 405 21 17 c12 10 26 18 32 18
6 0 62 -16 125 -36z m-438 -534 c239 -266 254 -285 241 -304 -18 -27 -18 -52
2 -85 16 -26 14 -28 -277 -494 -160 -257 -297 -466 -303 -464 -8 3 -12 144
-14 484 l-2 480 24 12 c52 28 53 89 2 127 l-26 19 -7 282 -6 281 24 4 c31 5
36 1 342 -342z m1566 -2409 c8 -5 12 -17 9 -27 -6 -20 -328 -827 -332 -832 -3
-3 -158 557 -160 577 -1 13 436 289 459 290 6 0 16 -3 24 -8z m-414 -585 l82
-298 -69 -175 c-38 -97 -71 -179 -73 -184 -3 -4 -197 86 -433 200 l-427 207 3
30 c2 16 7 30 10 32 4 2 187 113 407 247 220 134 404 242 409 241 5 -1 46
-136 91 -300z m150 -545 c31 -112 55 -204 53 -205 -2 -1 -10 -7 -20 -14 -14
-11 -33 -5 -126 42 l-110 55 62 153 c34 84 66 162 70 173 5 11 10 16 12 10 2
-5 28 -102 59 -214z m-2185 -23 c14 -5 45 -273 97 -851 5 -63 4 -69 -19 -90
-14 -13 -27 -29 -29 -36 -3 -9 -95 4 -364 54 -531 97 -628 115 -651 120 -16 4
-20 12 -19 44 l1 40 464 380 c454 370 465 379 485 362 11 -10 27 -20 35 -23z
m597 -299 c279 -183 513 -337 520 -343 9 -8 -104 -51 -454 -173 l-466 -163
-23 25 c-13 14 -30 25 -38 25 -9 0 -18 10 -20 23 -3 12 -24 219 -47 461 l-42
439 24 18 c13 10 27 19 31 19 3 0 235 -149 515 -331z m1497 131 c106 -50 107
-51 104 -83 -3 -32 -3 -32 -163 -88 -88 -30 -162 -54 -164 -53 -5 4 103 274
110 274 3 0 54 -23 113 -50z m-347 -491 l-93 -234 -39 -8 c-22 -4 -45 -8 -51
-9 -12 -1 -393 243 -394 253 0 6 663 239 668 234 2 -1 -39 -108 -91 -236z
m-2647 -169 c187 -32 936 -172 942 -177 5 -2 8 -9 8 -15 0 -6 7 -20 17 -30 18
-20 82 -25 100 -7 8 8 47 -10 147 -70 115 -69 135 -85 127 -99 -8 -16 -88 -21
-768 -57 l-760 -39 -23 22 -23 21 34 221 c28 179 37 220 50 220 8 0 24 7 35
15 10 8 26 12 34 10 8 -2 44 -9 80 -15z m2075 -1105 c340 -344 615 -628 612
-631 -5 -6 -134 38 -1067 362 -212 74 -390 141 -396 149 -6 8 -16 15 -23 15
-6 0 -11 8 -11 18 0 9 47 170 104 357 108 355 104 345 157 354 4 1 284 -280
624 -624z m-500 -266 c456 -158 819 -284 973 -336 72 -25 132 -49 132 -53 0
-29 -72 -48 -920 -240 -492 -112 -901 -205 -907 -207 -7 -3 -16 3 -20 13 -3
11 -10 21 -14 24 -4 3 75 197 174 432 151 355 186 428 204 433 12 3 27 14 33
25 6 11 14 20 18 20 4 0 151 -50 327 -111z m1149 -474 c30 -13 41 -37 213
-447 l182 -435 -37 -106 c-32 -92 -40 -107 -59 -107 -12 0 -30 -11 -41 -25
l-20 -25 -394 67 c-274 46 -397 71 -405 82 -11 12 -9 19 10 40 17 21 18 22 2
10 -13 -11 -31 -15 -53 -12 -36 6 -62 -10 -62 -37 0 -18 -10 -19 -408 -72 -94
-12 -94 -12 -112 12 -14 19 -24 22 -52 17 -34 -5 -38 -1 -352 320 -184 187
-315 328 -310 333 5 5 232 59 504 121 272 61 686 155 920 209 352 80 426 94
434 82 4 -8 22 -20 40 -27z m221 -94 c61 -52 116 -100 124 -107 12 -11 12 -15
0 -31 -13 -16 -12 -17 3 -4 20 15 36 4 157 -106 l54 -49 -78 -233 c-42 -128
-81 -229 -85 -224 -4 4 -51 114 -105 242 -86 207 -96 237 -85 255 12 19 12 20
-3 7 -14 -11 -18 -11 -24 5 -3 11 -37 91 -74 179 -66 157 -66 159 -45 171 25
13 18 18 161 -105z m170 -951 c-26 -33 -49 -59 -52 -56 -3 2 10 49 28 103 l32
97 20 -41 20 -41 -48 -62z m133 -144 c69 -168 69 -169 50 -188 -15 -15 -19
-29 -15 -53 5 -30 1 -35 -59 -80 -36 -26 -67 -45 -70 -43 -2 3 -25 75 -50 160
l-46 156 21 21 c22 22 27 61 12 90 -7 13 0 29 31 70 22 29 44 49 48 44 4 -4
39 -84 78 -177z m-678 99 c206 -36 378 -65 383 -65 4 0 7 -8 7 -17 0 -24 40
-63 65 -63 19 0 26 -19 69 -166 26 -91 44 -170 39 -174 -44 -43 -410 -310
-419 -306 -7 3 -11 0 -9 -7 3 -10 -524 -415 -553 -425 -5 -1 -14 249 -21 555
-6 307 -14 591 -17 631 -5 60 -4 72 9 72 8 0 20 7 27 15 7 8 20 15 29 15 9 0
185 -29 391 -65z m754 -395 c16 -6 35 -6 49 -1 21 8 30 1 90 -74 64 -78 66
-84 56 -113 -7 -20 -7 -37 -1 -48 7 -13 -14 -47 -107 -165 -67 -85 -119 -143
-122 -136 -11 21 -132 447 -128 450 2 2 23 18 46 36 24 18 47 30 52 27 5 -3
15 2 22 12 13 16 13 16 -6 2 -19 -14 -19 -14 -6 3 16 20 21 20 55 7z m-108
-334 c36 -124 62 -232 58 -239 -5 -6 -48 -63 -97 -125 -64 -81 -93 -110 -100
-103 -14 14 -64 14 -72 1 -4 -6 -11 -8 -16 -4 -5 3 -9 2 -8 -3 1 -4 -2 -22 -6
-39 -7 -29 -21 -37 -367 -188 -199 -86 -368 -154 -376 -151 -12 4 -9 12 14 38
l29 32 -30 -26 c-23 -21 -37 -26 -62 -22 l-32 5 -3 153 -3 153 499 376 c275
207 501 375 503 373 2 -2 33 -106 69 -231z m200 -689 c53 -180 94 -333 92
-339 -3 -8 -178 175 -396 414 -21 22 -23 30 -13 42 7 9 11 33 9 56 -3 37 3 48
87 156 l90 116 18 -58 c10 -33 61 -207 113 -387z m-1282 116 c3 -21 6 -88 6
-148 0 -98 -2 -112 -20 -128 -11 -9 -20 -29 -20 -45 0 -25 -8 -31 -102 -71
-57 -25 -125 -54 -153 -67 -222 -101 -895 -390 -884 -380 8 8 244 186 524 397
281 211 537 404 570 431 33 26 63 47 66 48 4 0 9 -17 13 -37z m846 12 c0 -11
-781 -635 -789 -631 -5 3 -22 1 -39 -5 -21 -7 -33 -19 -37 -38 -5 -26 -23 -35
-190 -105 -170 -72 -214 -83 -202 -52 3 8 -10 11 -41 10 -46 -2 -82 -28 -82
-59 0 -10 -70 -14 -312 -20 -172 -4 -331 -5 -353 -3 l-40 3 40 18 c377 168
1167 508 1172 503 3 -3 0 -14 -8 -23 -13 -16 -12 -17 2 -5 12 9 24 10 43 2 47
-18 92 11 98 65 3 29 13 34 358 186 331 146 380 166 380 154z m33 -29 c9 -7
28 -11 40 -9 20 4 55 -29 228 -217 199 -216 204 -222 201 -260 -2 -28 2 -44
16 -58 18 -18 15 -28 -162 -504 l-181 -486 -39 -5 -40 -6 -417 410 -417 410 5
40 c4 29 1 44 -11 58 -17 19 -15 22 56 79 261 214 694 562 698 562 3 0 13 -7
23 -14z m-894 -704 c9 -16 -36 -134 -133 -347 -7 -16 -58 -135 -112 -264 -54
-128 -103 -234 -109 -236 -5 -1 -27 -8 -47 -14 l-37 -12 -378 307 c-208 169
-386 315 -397 324 -14 14 -16 22 -7 37 10 19 25 20 352 25 l342 6 22 -26 c44
-51 124 -26 125 39 0 23 13 31 163 93 89 36 169 71 177 76 21 14 28 12 39 -8z
m-2261 -374 c364 -106 662 -195 662 -198 0 -3 -56 -82 -125 -175 -110 -150
-128 -170 -155 -172 -16 -2 -38 -4 -47 -5 -10 -1 -231 154 -493 346 -460 338
-535 396 -515 396 6 0 308 -86 673 -192z m1418 -182 c208 -170 386 -315 394
-324 13 -13 13 -14 -5 -8 -11 4 -260 77 -555 163 -294 85 -541 158 -548 162
-12 7 -5 19 148 226 l67 90 59 -1 60 0 380 -308z"/>
<path d="M12009 3783 c-13 -16 -12 -17 4 -4 9 7 17 15 17 17 0 8 -8 3 -21 -13z"/>
<path d="M11959 3743 c-13 -16 -12 -17 4 -4 16 13 21 21 13 21 -2 0 -10 -8
-17 -17z"/>
<path d="M11909 3703 c-13 -16 -12 -17 4 -4 16 13 21 21 13 21 -2 0 -10 -8
-17 -17z"/>
<path d="M11859 3663 c-13 -16 -12 -17 4 -4 16 13 21 21 13 21 -2 0 -10 -8
-17 -17z"/>
<path d="M11809 3623 c-13 -16 -12 -17 4 -4 9 7 17 15 17 17 0 8 -8 3 -21 -13z"/>
<path d="M11709 3543 c-13 -16 -12 -17 4 -4 16 13 21 21 13 21 -2 0 -10 -8
-17 -17z"/>
<path d="M11659 3503 c-13 -16 -12 -17 4 -4 9 7 17 15 17 17 0 8 -8 3 -21 -13z"/>
<path d="M11604 3458 l-19 -23 23 19 c21 18 27 26 19 26 -2 0 -12 -10 -23 -22z"/>
<path d="M11559 3423 c-13 -16 -12 -17 4 -4 16 13 21 21 13 21 -2 0 -10 -8
-17 -17z"/>
<path d="M11399 3293 c-13 -16 -12 -17 4 -4 16 13 21 21 13 21 -2 0 -10 -8
-17 -17z"/>
<path d="M11354 3258 l-19 -23 23 19 c21 18 27 26 19 26 -2 0 -12 -10 -23 -22z"/>
<path d="M12159 3903 c-13 -16 -12 -17 4 -4 9 7 17 15 17 17 0 8 -8 3 -21 -13z"/>
<path d="M12109 3863 c-13 -16 -12 -17 4 -4 16 13 21 21 13 21 -2 0 -10 -8
-17 -17z"/>
<path d="M12339 2593 l-24 -28 28 24 c15 14 27 26 27 28 0 8 -8 1 -31 -24z"/>
<path d="M12225 2468 l-40 -43 43 40 c23 21 42 40 42 42 0 8 -9 0 -45 -39z"/>
<path d="M12115 2348 l-40 -43 43 40 c39 36 47 45 39 45 -2 0 -21 -19 -42 -42z"/>
<path d="M12009 2233 l-34 -38 38 34 c34 33 42 41 34 41 -2 0 -19 -17 -38 -37z"/>
<path d="M11894 2108 l-29 -33 33 29 c30 28 37 36 29 36 -2 0 -16 -15 -33 -32z"/>
<path d="M11795 1998 l-40 -43 43 40 c23 21 42 40 42 42 0 8 -9 0 -45 -39z"/>
<path d="M11685 1878 l-40 -43 43 40 c23 21 42 40 42 42 0 8 -9 0 -45 -39z"/>
<path d="M11579 1763 l-34 -38 38 34 c34 33 42 41 34 41 -2 0 -19 -17 -38 -37z"/>
<path d="M11469 1643 l-34 -38 38 34 c34 33 42 41 34 41 -2 0 -19 -17 -38 -37z"/>
<path d="M11145 1288 l-40 -43 43 40 c39 36 47 45 39 45 -2 0 -21 -19 -42 -42z"/>
<path d="M11045 1178 l-40 -43 43 40 c23 21 42 40 42 42 0 8 -9 0 -45 -39z"/>
<path d="M10935 1058 l-40 -43 43 40 c23 21 42 40 42 42 0 8 -9 0 -45 -39z"/>
<path d="M12191 1494 c0 -11 3 -14 6 -6 3 7 2 16 -1 19 -3 4 -6 -2 -5 -13z"/>
<path d="M12221 1054 c0 -11 3 -14 6 -6 3 7 2 16 -1 19 -3 4 -6 -2 -5 -13z"/>
<path d="M12241 784 c0 -11 3 -14 6 -6 3 7 2 16 -1 19 -3 4 -6 -2 -5 -13z"/>
<path d="M12271 344 c0 -11 3 -14 6 -6 3 7 2 16 -1 19 -3 4 -6 -2 -5 -13z"/>
<path d="M12353 11494 l-252 -134 -31 31 c-25 25 -36 30 -58 24 -37 -9 -59
-31 -64 -64 -12 -81 113 -110 140 -32 7 21 48 47 203 128 314 166 345 183 329
182 -8 -1 -128 -61 -267 -135z"/>
<path d="M8530 10660 c-41 -41 -7 -120 51 -120 36 0 79 39 79 73 0 59 -87 90
-130 47z"/>
<path d="M4139 10561 c-19 -16 -24 -28 -22 -64 1 -42 -11 -63 -262 -443 -145
-219 -354 -537 -466 -706 -169 -257 -206 -308 -225 -308 -14 0 -30 -10 -40
-25 -15 -23 -15 -27 0 -50 20 -30 56 -33 79 -7 20 22 21 36 5 61 -10 17 15 60
201 343 118 177 327 495 465 705 183 279 255 381 266 377 49 -18 69 -16 94 9
35 35 35 79 0 106 -33 26 -65 27 -95 2z"/>
<path d="M10247 10163 c-33 -38 -22 -94 22 -113 75 -31 132 57 75 114 -21 21
-77 20 -97 -1z"/>
<path d="M2261 10076 c-21 -25 -9 -69 21 -80 50 -17 89 42 52 78 -19 20 -58
21 -73 2z"/>
<path d="M7769 9998 c-34 -11 -53 -55 -40 -90 5 -14 15 -28 21 -30 8 -2 -44
-108 -131 -271 -186 -344 -164 -338 -307 -82 -57 102 -106 185 -109 185 -5 0
8 -23 136 -250 66 -117 69 -126 54 -143 -10 -10 -17 -33 -17 -52 l0 -33 -158
-58 c-87 -31 -157 -58 -155 -60 2 -2 74 21 160 52 153 55 157 56 189 41 28
-14 36 -14 67 -1 35 15 37 14 844 -288 636 -238 811 -307 817 -323 5 -12 3
-23 -4 -27 -6 -3 -337 -122 -735 -264 -712 -253 -724 -256 -751 -240 -36 21
-62 20 -89 -1 -51 -42 -23 -123 41 -123 18 0 38 4 44 8 17 11 35 50 32 68 -2
13 149 70 737 280 476 169 743 260 749 254 6 -6 26 -10 46 -10 45 0 70 25 70
68 0 42 -31 72 -72 72 l-33 0 -227 428 c-202 379 -225 428 -212 443 20 22 18
52 -6 81 -26 34 -64 40 -96 16 l-24 -20 -143 55 c-386 150 -608 240 -603 244
2 3 0 17 -6 33 -11 34 -51 51 -89 38z m456 -233 c193 -76 356 -140 363 -142 6
-3 12 -17 12 -32 0 -40 34 -71 78 -71 l37 0 180 -337 c99 -186 201 -376 226
-424 45 -83 46 -87 29 -109 l-17 -22 -809 303 c-769 289 -809 305 -806 327 2
13 -4 34 -13 48 -9 14 -15 31 -13 37 9 35 282 526 290 521 13 -8 66 15 72 33
3 8 9 12 13 10 5 -3 166 -67 358 -142z"/>
<path d="M9099 9502 c-49 -41 -15 -122 51 -122 31 0 70 39 70 70 0 10 -9 29
-21 44 -25 31 -66 35 -100 8z"/>
<path d="M6295 9492 c-41 -25 -46 -72 -11 -107 14 -14 37 -25 51 -25 32 0 75
41 75 73 0 23 -32 67 -50 67 -4 0 -14 2 -22 5 -7 3 -27 -3 -43 -13z"/>
<path d="M12120 9203 l-135 -138 138 135 c127 125 142 140 134 140 -1 0 -63
-62 -137 -137z"/>
<path d="M6992 9093 c-24 -8 -41 -17 -39 -19 4 -5 97 26 97 32 0 6 -11 4 -58
-13z"/>
<path d="M6677 8978 c-136 -50 -246 -93 -244 -95 4 -3 497 174 506 182 11 12
-29 -2 -262 -87z"/>
<path d="M11795 8868 l-50 -53 53 50 c48 46 57 55 49 55 -1 0 -25 -24 -52 -52z"/>
<path d="M6212 8808 c-106 -39 -191 -73 -189 -75 4 -3 388 134 396 142 11 11
-25 0 -207 -67z"/>
<path d="M5842 8673 c-24 -8 -41 -17 -39 -19 4 -5 97 26 97 32 0 6 -11 4 -58
-13z"/>
<path d="M5582 8578 c-106 -39 -191 -73 -189 -75 4 -3 388 134 396 142 11 11
-25 0 -207 -67z"/>
<path d="M5330 8485 c-19 -7 -84 -31 -145 -53 -60 -22 -161 -58 -223 -81 -104
-38 -115 -40 -135 -26 -29 20 -50 19 -72 -5 -15 -16 -17 -26 -9 -48 8 -22 15
-27 43 -27 27 0 38 6 50 28 14 26 46 40 275 123 143 52 262 97 265 99 8 8 -12
4 -49 -10z"/>
<path d="M3345 8356 c-28 -42 14 -87 64 -71 24 7 38 60 21 80 -20 24 -67 19
-85 -9z"/>
<path d="M3894 8329 c-17 -19 -17 -23 -3 -47 11 -20 23 -27 44 -27 21 0 33 7
44 27 14 24 14 28 -3 47 -11 12 -29 21 -41 21 -12 0 -30 -9 -41 -21z"/>
<path d="M7076 8219 c-19 -15 -26 -30 -26 -54 0 -36 36 -75 70 -75 33 0 70 39
70 73 0 38 -7 50 -37 66 -31 16 -47 14 -77 -10z"/>
<path d="M12551 7904 c0 -11 3 -14 6 -6 3 7 2 16 -1 19 -3 4 -6 -2 -5 -13z"/>
<path d="M529 7783 c-13 -16 -12 -17 4 -4 9 7 17 15 17 17 0 8 -8 3 -21 -13z"/>
<path d="M479 7743 c-13 -16 -12 -17 4 -4 16 13 21 21 13 21 -2 0 -10 -8 -17
-17z"/>
<path d="M429 7703 c-13 -16 -12 -17 4 -4 9 7 17 15 17 17 0 8 -8 3 -21 -13z"/>
<path d="M379 7663 c-13 -16 -12 -17 4 -4 9 7 17 15 17 17 0 8 -8 3 -21 -13z"/>
<path d="M10478 7653 c-53 -59 3 -141 76 -113 47 17 56 87 17 117 -24 18 -76
16 -93 -4z"/>
<path d="M329 7623 c-13 -16 -12 -17 4 -4 9 7 17 15 17 17 0 8 -8 3 -21 -13z"/>
<path d="M9610 7593 c-37 -47 -4 -113 56 -113 62 0 94 66 58 118 -23 33 -86
31 -114 -5z"/>
<path d="M12581 7544 c0 -11 3 -14 6 -6 3 7 2 16 -1 19 -3 4 -6 -2 -5 -13z"/>
<path d="M12601 7324 c0 -11 3 -14 6 -6 3 7 2 16 -1 19 -3 4 -6 -2 -5 -13z"/>
<path d="M5167 7007 c-43 -34 -15 -106 36 -93 31 7 51 39 42 66 -8 25 -58 42
-78 27z"/>
<path d="M12631 6964 c0 -11 3 -14 6 -6 3 7 2 16 -1 19 -3 4 -6 -2 -5 -13z"/>
<path d="M399 6393 c-13 -16 -12 -17 4 -4 9 7 17 15 17 17 0 8 -8 3 -21 -13z"/>
<path d="M12681 6384 c0 -11 3 -14 6 -6 3 7 2 16 -1 19 -3 4 -6 -2 -5 -13z"/>
<path d="M12597 6290 c24 -26 30 -39 23 -50 -16 -25 -11 -76 8 -93 25 -23 85
-22 105 1 26 28 22 79 -9 107 -21 20 -30 22 -57 14 -28 -8 -35 -5 -67 24 l-35
32 32 -35z"/>
<path d="M239 6183 c-13 -16 -12 -17 4 -4 16 13 21 21 13 21 -2 0 -10 -8 -17
-17z"/>
<path d="M209 6143 c-13 -16 -12 -17 4 -4 16 13 21 21 13 21 -2 0 -10 -8 -17
-17z"/>
<path d="M1212 6140 c0 -14 2 -19 5 -12 2 6 2 18 0 25 -3 6 -5 1 -5 -13z"/>
<path d="M6938 6003 c7 -3 16 -2 19 1 4 3 -2 6 -13 5 -11 0 -14 -3 -6 -6z"/>
<path d="M5848 5763 c7 -3 16 -2 19 1 4 3 -2 6 -13 5 -11 0 -14 -3 -6 -6z"/>
<path d="M11582 5630 c0 -14 2 -19 5 -12 2 6 2 18 0 25 -3 6 -5 1 -5 -13z"/>
<path d="M67 5622 c-26 -28 -22 -79 9 -107 21 -20 30 -22 57 -14 28 8 35 5 72
-29 l40 -37 -37 40 c-28 30 -35 44 -28 55 16 25 11 76 -8 93 -25 23 -85 22
-105 -1z"/>
<path d="M12549 5583 c-13 -16 -12 -17 4 -4 9 7 17 15 17 17 0 8 -8 3 -21 -13z"/>
<path d="M111 5384 c0 -11 3 -14 6 -6 3 7 2 16 -1 19 -3 4 -6 -2 -5 -13z"/>
<path d="M12389 5373 c-13 -16 -12 -17 4 -4 9 7 17 15 17 17 0 8 -8 3 -21 -13z"/>
<path d="M7890 5337 c-13 -7 -29 -25 -35 -40 -20 -60 48 -117 102 -87 54 30
52 104 -4 129 -30 14 -32 14 -63 -2z"/>
<path d="M141 5024 c0 -11 3 -14 6 -6 3 7 2 16 -1 19 -3 4 -6 -2 -5 -13z"/>
<path d="M5936 4979 c-52 -41 -19 -129 49 -129 29 0 68 43 68 76 0 31 -42 74
-72 74 -10 0 -30 -9 -45 -21z"/>
<path d="M4205 4855 c-22 -21 -26 -32 -21 -58 12 -64 77 -87 121 -42 45 44 22
109 -42 121 -26 5 -37 1 -58 -21z"/>
<path d="M7570 4840 c-32 -32 -24 -62 20 -78 33 -12 49 -5 61 25 7 19 6 32 -6
49 -19 29 -48 31 -75 4z"/>
<path d="M161 4804 c0 -11 3 -14 6 -6 3 7 2 16 -1 19 -3 4 -6 -2 -5 -13z"/>
<path d="M191 4444 c0 -11 3 -14 6 -6 3 7 2 16 -1 19 -3 4 -6 -2 -5 -13z"/>
<path d="M3080 4268 c-24 -26 -26 -65 -4 -96 11 -16 25 -22 53 -22 46 0 74 27
74 70 0 64 -79 95 -123 48z"/>
<path d="M211 4224 c0 -11 3 -14 6 -6 3 7 2 16 -1 19 -3 4 -6 -2 -5 -13z"/>
<path d="M2242 4230 c-43 -18 -51 -88 -13 -117 24 -18 76 -16 94 5 32 36 21
97 -20 113 -29 11 -31 11 -61 -1z"/>
<path d="M12459 4143 c-13 -16 -12 -17 4 -4 9 7 17 15 17 17 0 8 -8 3 -21 -13z"/>
<path d="M12409 4103 c-13 -16 -12 -17 4 -4 16 13 21 21 13 21 -2 0 -10 -8
-17 -17z"/>
<path d="M12359 4063 c-13 -16 -12 -17 4 -4 9 7 17 15 17 17 0 8 -8 3 -21 -13z"/>
<path d="M12309 4023 c-13 -16 -12 -17 4 -4 16 13 21 21 13 21 -2 0 -10 -8
-17 -17z"/>
<path d="M12259 3983 c-13 -16 -12 -17 4 -4 9 7 17 15 17 17 0 8 -8 3 -21 -13z"/>
<path d="M241 3864 c0 -11 3 -14 6 -6 3 7 2 16 -1 19 -3 4 -6 -2 -5 -13z"/>
<path d="M5154 3822 c-17 -11 -35 -50 -32 -68 3 -19 68 6 -857 -323 -402 -143
-623 -217 -629 -211 -6 6 -26 10 -46 10 -45 0 -70 -25 -70 -68 0 -42 31 -72
73 -72 l32 0 227 -428 c202 -379 225 -428 212 -443 -20 -22 -18 -52 6 -81 27
-35 64 -40 96 -15 l25 20 147 -58 c487 -191 603 -238 598 -242 -2 -3 0 -18 6
-33 19 -56 105 -56 128 -1 12 30 1 76 -20 83 -8 2 44 108 131 271 186 344 164
338 307 82 57 -102 106 -185 109 -185 5 0 -31 66 -141 260 -60 106 -63 116
-49 132 9 10 16 32 17 50 1 18 6 36 11 40 6 5 3 8 -6 8 -9 0 -29 6 -45 14 -24
13 -32 13 -63 0 l-35 -15 -809 303 c-635 238 -811 307 -817 323 -5 12 -3 23 4
26 6 4 337 123 735 264 723 258 724 258 753 241 31 -19 78 -15 98 9 19 23 19
69 0 93 -18 22 -72 30 -96 14z m-674 -985 c755 -283 805 -303 802 -324 -2 -13
5 -36 14 -52 l17 -29 -143 -265 c-95 -178 -147 -264 -155 -260 -15 5 -54 -13
-70 -32 -8 -10 -100 23 -377 133 -355 140 -368 146 -368 172 0 40 -34 70 -78
70 l-37 0 -226 423 c-210 396 -224 425 -211 445 8 12 17 22 21 22 3 0 368
-136 811 -303z"/>
<path d="M5636 3659 c-26 -20 -36 -69 -18 -95 14 -21 54 -36 80 -29 56 14 72
88 26 124 -15 12 -34 21 -44 21 -10 0 -29 -9 -44 -21z"/>
<path d="M7966 3508 c-8 -12 -13 -24 -11 -28 3 -4 -43 -24 -101 -45 -57 -21
-103 -39 -101 -41 2 -3 47 11 100 31 94 34 97 34 127 17 22 -13 34 -14 47 -6
30 19 38 40 25 68 -15 34 -64 36 -86 4z"/>
<path d="M8826 3498 c-21 -29 -20 -41 2 -61 25 -23 55 -21 78 4 17 19 17 23 3
47 -20 36 -61 41 -83 10z"/>
<path d="M9383 3482 c-18 -12 -27 -60 -13 -77 19 -23 66 -19 84 7 20 29 20 34
-4 58 -21 21 -46 25 -67 12z"/>
<path d="M7680 3373 c-25 -9 -40 -18 -34 -20 6 -2 31 5 55 16 53 24 41 26 -21
4z"/>
<path d="M7422 3278 c-106 -39 -191 -73 -189 -75 4 -3 388 134 396 142 11 11
-25 0 -207 -67z"/>
<path d="M7162 3183 c-24 -8 -41 -17 -39 -19 4 -5 97 26 97 32 0 6 -11 4 -58
-13z"/>
<path d="M7052 3143 c-24 -8 -41 -17 -39 -19 4 -5 97 26 97 32 0 6 -11 4 -58
-13z"/>
<path d="M6642 2993 c-24 -8 -41 -17 -39 -19 4 -5 97 26 97 32 0 6 -11 4 -58
-13z"/>
<path d="M6532 2953 c-24 -8 -41 -17 -39 -19 4 -5 97 26 97 32 0 6 -11 4 -58
-13z"/>
<path d="M995 2898 l-50 -53 53 50 c28 27 52 51 52 52 0 8 -9 -1 -55 -49z"/>
<path d="M6327 2878 c-75 -28 -136 -53 -134 -55 4 -4 278 94 286 102 10 11
-21 1 -152 -47z"/>
<path d="M9597 2812 c-20 -22 -21 -36 -5 -61 10 -17 -13 -56 -178 -308 -105
-158 -314 -476 -465 -705 -200 -304 -278 -416 -289 -412 -49 18 -69 16 -94 -9
-35 -35 -35 -79 0 -106 33 -26 65 -27 95 -2 19 16 24 28 22 64 -1 42 11 63
262 443 145 219 354 537 466 707 169 256 206 307 225 307 14 0 30 10 40 25 15
23 15 27 0 50 -20 30 -56 33 -79 7z"/>
<path d="M6122 2803 c-24 -8 -41 -17 -39 -19 4 -5 97 26 97 32 0 6 -11 4 -58
-13z"/>
<path d="M6012 2763 c-24 -8 -41 -17 -39 -19 4 -5 97 26 97 32 0 6 -11 4 -58
-13z"/>
<path d="M5807 2688 c-75 -28 -136 -53 -134 -55 4 -4 278 94 286 102 10 11
-21 1 -152 -47z"/>
<path d="M680 2573 l-135 -138 138 135 c127 125 142 140 134 140 -1 0 -63 -62
-137 -137z"/>
<path d="M5547 2593 c-54 -20 -96 -37 -94 -39 4 -4 198 64 206 72 10 9 -19 1
-112 -33z"/>
<path d="M6415 2385 c-41 -41 -28 -93 30 -115 22 -8 34 -7 58 7 42 25 48 73
13 108 -32 32 -70 32 -101 0z"/>
<path d="M3601 2364 c-12 -15 -21 -34 -21 -44 0 -10 9 -29 21 -44 40 -51 122
-22 122 44 0 66 -82 95 -122 44z"/>
<path d="M10465 1760 c-24 -27 -13 -68 22 -76 34 -9 57 6 61 42 6 49 -49 72
-83 34z"/>
<path d="M2455 1705 c-28 -27 -31 -45 -14 -78 16 -30 28 -37 65 -37 38 0 64
27 64 66 0 35 -8 47 -37 63 -33 17 -51 14 -78 -14z"/>
<path d="M4166 1209 c-51 -40 -18 -119 49 -119 67 0 96 61 54 114 -25 32 -66
34 -103 5z"/>
<path d="M738 487 c-10 -8 -21 -25 -27 -38 -7 -20 -68 -56 -275 -165 -146 -76
-262 -140 -257 -142 4 -1 123 58 264 133 l256 135 31 -31 c25 -25 36 -30 58
-24 86 21 87 129 0 141 -19 3 -40 -1 -50 -9z"/>
</g>
</svg>
